<svg xmlns="http://www.w3.org/2000/svg" id="Calque_1" data-name="Calque 1" viewBox="0 0 239.31 94.01"><defs><style>.cls-1{fill:#c58b23}</style></defs><path d="M11.26 11.5c-.26 1.8.06 3.73-.19 5.59-.13 1.03 0 2.12-.19 3.15-.26 1.41-.83 2.7-1.28 4.05-.26.9-.39 1.86-.26 2.83.19 1.16.71 2.18 1.03 3.28.39 1.22.51 2.38.51 3.6.13 1.28 0 2.57.45 3.73.32.77 1.03 1.35 1.8 1.61.96.32 1.99.39 2.95.19 1.29-.19 2.44-.96 3.73-.9 1.03-.06 1.99.32 2.96.64.71.06 1.54.06 2.06-.51 1.8-1.67 2.57-4.11 2.12-6.49-.19-.77-.64-1.41-.9-2.18-.32-.83-.26-1.8.13-2.63.71-1.35 2.31-2.06 3.79-2.06 1.22 0 2.44.51 3.34 1.41 1.09 1.22 1.35 3.15 1.16 4.82 0 2.51-.39 5.01-1.16 7.39-1.16 4.05-3.53 5.65-7.84 5.65h-1.61c-2.06 0-4.56.19-6.17 1.48-.77.51-1.35 1.29-2.06 1.86-.84.64-1.8 1.03-2.83 1.03-1.86.13-3.73-.45-5.2-1.54-.71-.45-1.22-1.09-1.54-1.86-.58-1.09-.77-2.44-1.09-3.66-.58-2.38-1.73-4.5-2.7-6.68-.84-1.8-1.99-3.6-2.25-5.65-.13-1.99.51-3.79 1.28-5.52 1.03-2.31 2.12-4.69 2.44-7.26.45-2.76.13-5.59.77-8.22A10.56 10.56 0 0 1 7.4 3.77C9.39 1.91 12.73.04 15.56.04c.71 0 1.41.13 2.06.32 1.41.39 2.7 1.03 4.11 1.41 2.96.96 6.1.64 9.06 1.67 1.16.32 2.18 1.03 2.96 1.93 1.09 1.35 1.41 3.41 1.09 5.2-.32 1.61-1.54 4.11-2.63 5.4-.71.83-1.73 1.41-2.83 1.48-1.8 0-3.66-1.16-4.37-2.83-.58-1.16-.51-2.44-.71-3.66-.19-3.02-3.6-4.3-6.23-4.3-3.08 0-6.1 1.8-6.81 4.88ZM71.58 41.76c-.39 3.47-2.76 6.49-6.42 6.49a8.6 8.6 0 0 1-2.89-.51c-1.54-.45-3.08-.96-4.69-1.16-1.35-.19-2.7-.06-4.05.26-1.67.39-3.28 1.03-4.88 1.54-1.22.39-2.51.64-3.79.64-.71 0-1.41-.06-2.12-.26-1.03-.19-1.86-.9-2.31-1.8-.39-.77-.32-1.61-.26-2.38.13-1.35.45-2.7.45-4.05.06-1.86-.58-3.73-1.28-5.4-.64-1.54-1.35-3.21-1.22-4.95.19-2.12.9-4.11 1.54-6.1.51-1.41.9-2.89 1.16-4.37.19-1.35.13-2.76-.26-4.11-.39-1.28-.84-2.51-1.16-3.79-.58-2.12-.64-4.37-.19-6.55.39-2.44 1.28-4.69 4.24-4.69.45 0 .9.06 1.35.26.9.26 1.61.9 2.44 1.22.39.13.77.26 1.22.26.58 0 1.16-.19 1.73-.45 1.99-1.09 3.79-1.8 6.1-1.8 1.03 0 2.12.13 3.15.45 1.09.26 2.12.71 3.28.71.9.06 1.8-.13 2.7-.13 1.22 0 2.18.45 2.89 1.41 1.16 1.54 1.73 3.4 1.48 5.33-.19 1.99-1.41 3.79-3.08 4.63-.64.32-1.35.39-1.99.32-.58-.13-1.16-.45-1.48-.96-.64-.9-.9-2.06-1.41-3.02-.26-.39-.64-.64-1.09-.84-.26-.19-.58-.26-.9-.26-1.28-.13-2.57 0-3.85.32-1.22.39-2.44 1.03-3.79 1.16-1.22.19-2.38-.32-3.6-.39-.71-.13-1.35.06-1.93.45-.45.39-.77.96-.77 1.54-.19 2.18.26 4.3 1.16 6.23.26.45.58.96 1.03 1.09.84.19 1.61-.19 2.38-.06 1.03.13 1.93.84 2.89 1.28.77.51 1.67.77 2.57.77s1.8-.39 2.51-.96c.51-.51.77-1.28 1.16-1.93.71-1.61 2.06-2.18 3.73-2.18 2.44 0 4.69 1.86 5.65 4.05.83 1.93.51 4.43-.9 5.91-.84.77-1.86 1.29-2.96 1.41-.77.13-1.54.19-2.31.19-3.08 0-7.77-.19-10.6-.71-.58-.13-1.22-.19-1.86-.19-.45 0-.96 0-1.41.19-.96.45-1.67 1.35-1.8 2.44-.06.71-.06 1.35.13 1.99q.48 1.83.39 3.66c-.13 1.28-.77 2.51-.64 3.85.06.84.71 1.48 1.41 1.8.51.06 1.03.06 1.61-.06 1.09-.19 2.06-.84 3.21-.9 1.29-.06 2.44.58 3.66.84.39.13.84.19 1.22.19.84 0 1.67-.19 2.31-.64 1.16-.77 2.12-1.93 3.34-2.63 1.22-.77 2.63-1.35 4.05-1.03 1.29.39 2.38 1.22 3.08 2.38.71 1.22.9 2.57.71 3.98ZM105.12 46c-.45.64-1.03 1.16-1.73 1.48-.64.39-1.35.51-2.06.51-.45 0-.9-.06-1.35-.19-2.06-.39-3.47-2.18-3.98-4.18-.39-1.03-.45-2.12-.26-3.21.19-1.35.71-2.63.96-3.92.26-.96.32-1.99.13-2.96-.19-1.28-1.09-2.25-1.99-2.96-.64-.58-1.48-1.09-1.86-1.99-.39-1.03-.71-2.12-1.16-3.08-.26-.45-.64-1.03-1.16-.9-.71.19-1.35.58-2.06.32-.64-.32-1.09-1.03-1.8-1.28-.39-.19-.84-.19-1.22-.06 0 1.22-.19 2.38-.19 3.6-.13 1.35-.26 2.7-.45 3.98-.19 1.09-.39 2.18-.06 3.28.26.83.71 1.67.96 2.57.13.51.13 1.16.32 1.67.64 1.73.9 3.79.32 5.59-.13.58-.26 1.16-.51 1.67-.19.51-.51 1.03-.96 1.41-1.73 1.22-3.28 1.67-5.33 1.67-.84 0-1.67-.06-2.44-.13-.9 0-1.67-.39-2.25-1.09-.71-1.03-.58-2.44-.19-3.6.51-1.09 1.48-1.93 1.67-3.15.26-1.03-.26-1.99-.45-2.96s-.26-1.93-.13-2.83c.13-1.09.71-2.06.84-3.15.26-2.31-.26-4.69-.84-6.94-.26-1.22-.39-2.44-.26-3.66.26-1.61.71-3.21 1.28-4.75.39-1.03.58-2.06.64-3.15 0-.64-.13-1.28-.26-1.93-.39-1.41-1.16-2.63-1.35-4.05-.13-.64-.19-1.35-.13-1.99 0-3.28 2.96-5.27 6.04-5.27 1.09 0 2.18.19 3.28.51.45.19 1.03 0 1.54-.06.96-.19 1.86-.58 2.83-.77.51 0 1.03-.06 1.54 0 .64 0 1.22.19 1.8.19 1.48 0 2.63.13 3.98.77.84.45 1.35 1.41 1.93 2.18.64.77 1.48 1.22 2.12 1.93 1.29 1.35 1.67 3.73.96 5.53-.64 1.86-2.18 3.08-2.76 4.95-.45 1.35-1.61 1.93-2.38 2.96.71.19 1.54.32 2.12.96.77.77 1.35 1.8 1.67 2.83.26.9.32 1.8.45 2.7.26 1.09.77 2.18 1.41 3.08.64.77 1.09 1.73 1.28 2.7.19.9.19 1.86.13 2.76-.13 1.54-.51 3.08-.71 4.63-.13 1.16.13 2.38.71 3.47.45.71 1.35.9 1.61 1.8.19.84.06 1.73-.26 2.51ZM94.65 8.09c0-.9-.58-1.61-1.16-2.06q-.48-.39-.96-.39c-.45 0-.84.13-1.22.26-.58.19-1.16.26-1.8.26-.58 0-1.22-.06-1.8-.26-.58-.19-1.28-.45-1.86-.26-.77.77-1.22 1.73-1.22 2.83 0 1.16.39 2.25.58 3.34.19 1.22.19 2.51-.13 3.73-.13.71-.39 1.54-.19 2.25.39.26.84.39 1.28.51 1.03.19 2.06.26 3.08.19.9-.19 1.86-.39 2.44-1.16.45-.51.39-1.28.32-1.93-.13-.84-.32-1.8-.06-2.63.32-1.09 1.16-1.86 1.86-2.7.45-.51.9-1.16.84-1.99ZM140.58 47.35c-.58.9-1.61 1.67-2.76 1.67-1.99 0-2.89-2.38-3.34-3.98-.39-1.67-.71-3.4-.9-5.14-.19-1.03-.39-2.12-1.03-2.95a3.96 3.96 0 0 0-3.02-1.41c-1.8-.13-3.47.71-5.2 1.22-.58.19-1.16.32-1.8.32-.51 0-.96-.06-1.48-.19-.9-.26-1.8-.77-2.76-.77-1.09 0-1.8.9-2.12 1.8-.84 2.18-.39 4.56-.96 6.75-.26 1.09-.84 2.12-1.67 2.63-.45.32-1.03.51-1.61.51-1.61 0-3.08-1.48-3.92-2.76-.96-1.54-1.54-3.6-1.03-5.52.51-1.86 1.73-3.34 2.7-4.95 1.16-1.8 1.8-3.85 1.99-5.97 0-2.31-.39-4.3-.84-6.55-.13-.96-.19-1.86-.13-2.76.26-2.12 1.48-3.85 2.89-5.14.96-.9 2.12-1.67 2.76-2.89.39-.71.84-1.41 1.09-2.18 1.03-3.28 4.43-8.99 8.48-8.99.58 0 1.16.13 1.73.45.77.51 1.35 1.28 1.54 2.18.39 1.35.26 2.76.26 4.18-.19 1.54-.13 3.15.19 4.69.39 1.35 1.03 2.7 1.99 3.79 1.48 1.73 3.47 2.76 4.95 4.5.96 1.16 1.48 2.57 1.48 4.05.06 2.44-.96 4.88-.51 7.32.26 1.67 1.16 3.08 1.93 4.5 1.09 1.86 2.18 3.79 2.51 6.04.32 1.99-.19 3.98-1.41 5.59Zm-11.69-23.19c-.45-.71-1.09-1.22-1.67-1.8-1.73-1.61-2.25-3.85-2.38-6.17-.06-1.03-.13-2.18-.58-3.15-.19-.51-.77-.9-1.28-.64-.45.19-.84.51-1.09.96-.13.19-2.06 3.6-2.06 3.66.26.64.96 1.16.9 1.99.06.9-.58 1.54-.96 2.18-.64 1.09-1.41 2.18-1.41 3.53-.13 1.16.45 2.31 1.48 2.96.32.19.64.26 1.03.26.32 0 .64-.06.9-.19.51-.32 1.09-.45 1.67-.39 1.22.19 2.38.96 3.66.71.96-.13 1.67-1.09 1.99-2.12.19-.58.13-1.22-.19-1.8ZM184.72 43.88c-.64 2.76-3.02 5.14-5.97 5.14-2.25 0-5.59-1.35-6.87-3.34-.45-.77-.58-1.67-.45-2.57.26-1.48.96-2.76 1.35-4.18.26-.77.26-1.54.06-2.31-.26-.9-.64-1.8-.51-2.76.13-1.35 1.16-2.31 1.48-3.6.19-.84.13-1.73-.13-2.57-.32-.96-.45-1.99-.51-2.96-.13-2.89 1.16-5.59 1.22-8.48.06-.83-.06-1.67-.45-2.38-.06-.19-.19-.26-.39-.32-.13-.06-.32 0-.45.06-.64.39-1.09.96-1.35 1.67-.45 1.09-.39 2.25-.32 3.41.26 2.76.45 5.65-.45 8.29-.32 1.03-.96 1.86-1.41 2.76-.26.71-.32 1.41-.13 2.12.39 1.35.51 2.76.39 4.11-.13 3.08-.77 7.2-4.75 7.2-1.03 0-2.06-.39-2.89-1.09-1.8-1.41-1.99-3.66-2.12-5.78 0-1.16.06-2.38-.51-3.34-.58-.96-1.35-1.73-1.86-2.7-.45-.84-.32-1.86-.13-2.7.32-1.41.71-2.76.64-4.24 0-1.03-.26-2.06-.71-2.96-.51-.96-1.48-1.8-2.51-1.61-.58 0-.96.64-1.16 1.22-.51 1.54-.51 3.21-.45 4.88.13 2.12.45 4.24 1.09 6.36.26 1.16.64 2.25.9 3.4.32 1.41.58 2.89.96 4.3.26 1.35.71 2.7.64 4.05 0 3.53-3.28 5.46-6.55 5.46-.77 0-1.48-.06-2.25-.26-2.51-.51-3.6-3.73-3.6-5.97 0-2.7.96-5.14 1.28-7.71.19-1.35.39-2.76.45-4.11s-.19-2.63-.71-3.92c-.51-1.35-.96-2.83-1.41-4.24-.58-2.12.13-4.3 1.73-5.78a3 3 0 0 0 1.22-1.93c.06-1.22 0-2.44-.19-3.66-.06-1.67-.19-3.41.26-5.08.45-1.73 1.41-3.28 2.7-4.5.9-.71 1.99-1.09 3.15-1.16.9-.13 1.86-.06 2.83.19 2.83 1.16 4.37 5.46 4.88 8.16.51 2.57.51 5.2.84 7.77.26 1.73.58 3.41 1.09 5.01.13.64.45 1.29.83 1.86.26.26.64.51.96.32.58-.39 1.03-.9 1.22-1.54.45-1.22.45-2.57.71-3.79.45-2.83.45-5.72 1.03-8.48.96-4.69 1.99-9.51 7.84-9.51 4.69 0 7.71 3.79 7.71 8.29-.19 1.48-.06 2.96-.39 4.37-.19.71-.32 1.48-.45 2.18-.19 1.28-.13 2.63.19 3.85.58 2.25 1.67 4.37 1.54 6.68.13 2.12-.58 4.11-1.16 6.04-.39 1.16-.71 2.31-.9 3.47-.06.77.13 1.54.64 2.12.58.84 1.22 1.54 1.73 2.44.64 1.35.83 2.83.51 4.3ZM200.27 29.68c.26 1.67.19 3.41-.19 5.08-.39 1.48-.58 3.02-.64 4.56.06.96.51 1.73.58 2.7.13 1.03.06 2.12-.19 3.15-.13.64-.39 1.22-.84 1.67-1.61 1.86-3.66 2.18-5.97 2.18-1.03.06-1.99-.26-2.83-.84-.51-.39-.84-.9-1.09-1.48a6.08 6.08 0 0 1-.19-4.75c.51-1.35 1.61-2.38 2.06-3.85.26-.96.19-1.99-.26-2.89-.51-1.03-.9-2.12-1.22-3.21-.13-.71-.19-1.48-.13-2.25 0-1.41.77-2.7.64-4.18-.06-.83-.32-1.73-.71-2.51-.64-1.73-1.16-3.73-.77-5.59.32-1.61 1.35-3.73 2.12-5.2.26-.71.26-1.48 0-2.25-.26-.96-.71-1.93-.9-2.89-.06-.64-.13-1.22-.13-1.86 0-2.96 2.38-5.27 5.33-5.27.84 0 1.61.19 2.38.51 1.93.96 3.08 2.7 3.47 4.82.26 1.03.26 2.12 0 3.15-.19.96-.58 1.86-.96 2.76-.26.58-.32 1.16-.19 1.73.26 1.54 1.16 2.76 1.41 4.24.26 1.99 0 4.05-.77 5.85-.39.96-.77 1.99-.71 3.08.06 1.22.51 2.31.71 3.53ZM215.37 11.5c-.26 1.8.06 3.73-.19 5.59-.13 1.03 0 2.12-.19 3.15-.26 1.41-.83 2.7-1.28 4.05-.26.9-.39 1.86-.26 2.83.19 1.16.71 2.18 1.03 3.28.39 1.22.51 2.38.51 3.6.13 1.28 0 2.57.45 3.73.32.77 1.03 1.35 1.8 1.61.96.32 1.99.39 2.95.19 1.29-.19 2.44-.96 3.73-.9 1.03-.06 1.99.32 2.96.64.71.06 1.54.06 2.06-.51 1.8-1.67 2.57-4.11 2.12-6.49-.19-.77-.64-1.41-.9-2.18-.32-.83-.26-1.8.13-2.63.71-1.35 2.31-2.06 3.79-2.06 1.22 0 2.44.51 3.34 1.41 1.09 1.22 1.35 3.15 1.16 4.82 0 2.51-.39 5.01-1.16 7.39-1.16 4.05-3.53 5.65-7.84 5.65h-1.61c-2.06 0-4.56.19-6.17 1.48-.77.51-1.35 1.29-2.06 1.86-.84.64-1.8 1.03-2.83 1.03-1.86.13-3.73-.45-5.2-1.54-.71-.45-1.22-1.09-1.54-1.86-.58-1.09-.77-2.44-1.09-3.66-.58-2.38-1.73-4.5-2.7-6.68-.84-1.8-1.99-3.6-2.25-5.65-.13-1.99.51-3.79 1.28-5.52 1.03-2.31 2.12-4.69 2.44-7.26.45-2.76.13-5.59.77-8.22a10.56 10.56 0 0 1 2.89-4.88c1.99-1.86 5.33-3.73 8.16-3.73.71 0 1.41.13 2.06.32 1.41.39 2.7 1.03 4.11 1.41 2.96.96 6.1.64 9.06 1.67 1.16.32 2.18 1.03 2.96 1.93 1.09 1.35 1.41 3.41 1.09 5.2-.32 1.61-1.54 4.11-2.63 5.4-.71.83-1.73 1.41-2.83 1.48-1.8 0-3.66-1.16-4.37-2.83-.58-1.16-.51-2.44-.71-3.66-.19-3.02-3.6-4.3-6.23-4.3-3.08 0-6.1 1.8-6.81 4.88ZM178.05 89.36c-.54 2.31-2.53 4.3-5 4.3-1.88 0-4.68-1.13-5.76-2.8-.38-.65-.48-1.4-.38-2.15.22-1.24.81-2.31 1.13-3.5.22-.65.22-1.29.05-1.94-.22-.75-.54-1.51-.43-2.31.11-1.13.97-1.94 1.24-3.01.16-.7.11-1.45-.11-2.15-.27-.81-.38-1.67-.43-2.47-.11-2.42.97-4.68 1.02-7.1.05-.7-.05-1.4-.38-1.99-.05-.16-.16-.22-.32-.27-.11-.05-.27 0-.38.05-.54.32-.91.81-1.13 1.4-.38.91-.32 1.88-.27 2.85.22 2.31.38 4.73-.38 6.94-.27.86-.81 1.56-1.18 2.31-.22.59-.27 1.18-.11 1.78.32 1.13.43 2.31.32 3.44-.11 2.58-.65 6.02-3.98 6.02-.86 0-1.72-.32-2.42-.91-1.51-1.18-1.67-3.07-1.77-4.84 0-.97.05-1.99-.43-2.8s-1.13-1.45-1.56-2.26c-.38-.7-.27-1.56-.11-2.26.27-1.18.59-2.31.54-3.55 0-.86-.22-1.72-.59-2.47-.43-.81-1.24-1.51-2.1-1.34-.48 0-.81.54-.97 1.02-.43 1.29-.43 2.69-.38 4.09.11 1.77.38 3.55.91 5.33.22.97.54 1.88.75 2.85.27 1.18.48 2.42.81 3.6.22 1.13.59 2.26.54 3.39 0 2.96-2.74 4.57-5.49 4.57-.65 0-1.24-.05-1.88-.22-2.1-.43-3.01-3.12-3.01-5 0-2.26.81-4.3 1.08-6.45.16-1.13.32-2.31.38-3.44s-.16-2.21-.59-3.28c-.43-1.13-.81-2.37-1.18-3.55-.48-1.77.11-3.6 1.45-4.84.54-.38.91-.97 1.02-1.61.05-1.02 0-2.04-.16-3.07-.05-1.4-.16-2.85.22-4.25.38-1.45 1.18-2.74 2.26-3.77.75-.59 1.67-.91 2.64-.97.75-.11 1.56-.05 2.37.16 2.37.97 3.66 4.57 4.09 6.83.43 2.15.43 4.36.7 6.51.22 1.45.48 2.85.91 4.2.11.54.38 1.08.7 1.56.22.22.54.43.81.27.48-.32.86-.75 1.02-1.29.38-1.02.38-2.15.59-3.17.38-2.37.38-4.79.86-7.1.81-3.93 1.67-7.96 6.56-7.96 3.93 0 6.45 3.17 6.45 6.94-.16 1.24-.05 2.47-.32 3.66-.16.59-.27 1.24-.38 1.83-.16 1.08-.11 2.21.16 3.23.48 1.88 1.4 3.66 1.29 5.59.11 1.78-.48 3.44-.97 5.06-.32.97-.59 1.94-.75 2.91-.05.65.11 1.29.54 1.77.48.7 1.02 1.29 1.45 2.04.54 1.13.7 2.37.43 3.6ZM208.17 92.26c-.48.75-1.34 1.4-2.31 1.4-1.67 0-2.42-1.99-2.8-3.34-.32-1.4-.59-2.85-.75-4.3-.16-.86-.32-1.77-.86-2.47-.65-.75-1.56-1.18-2.53-1.18-1.51-.11-2.91.59-4.36 1.02-.48.16-.97.27-1.51.27-.43 0-.81-.05-1.24-.16-.75-.21-1.51-.65-2.31-.65-.91 0-1.51.75-1.78 1.51-.7 1.83-.32 3.82-.81 5.65-.22.91-.7 1.78-1.4 2.21-.38.27-.86.43-1.34.43-1.34 0-2.58-1.24-3.28-2.31-.81-1.29-1.29-3.01-.86-4.63.43-1.56 1.45-2.8 2.26-4.14.97-1.51 1.51-3.23 1.67-5 0-1.94-.32-3.6-.7-5.49-.11-.81-.16-1.56-.11-2.31.22-1.78 1.24-3.23 2.42-4.3.81-.75 1.77-1.4 2.31-2.42.32-.59.7-1.18.91-1.83.86-2.74 3.71-7.53 7.1-7.53.48 0 .97.11 1.45.38.65.43 1.13 1.08 1.29 1.83.32 1.13.22 2.31.22 3.5-.16 1.29-.11 2.64.16 3.93.32 1.13.86 2.26 1.67 3.17 1.24 1.45 2.91 2.31 4.14 3.77.81.97 1.24 2.15 1.24 3.39.05 2.04-.81 4.09-.43 6.13.22 1.4.97 2.58 1.61 3.77.91 1.56 1.83 3.17 2.1 5.06.27 1.67-.16 3.34-1.18 4.68Zm-9.79-19.41c-.38-.59-.91-1.02-1.4-1.51-1.45-1.34-1.88-3.23-1.99-5.16-.05-.86-.11-1.83-.48-2.64-.16-.43-.65-.75-1.08-.54-.38.16-.7.43-.91.81-.11.16-1.72 3.01-1.72 3.07.22.54.81.97.75 1.67.05.75-.48 1.29-.81 1.83-.54.91-1.18 1.83-1.18 2.96-.11.97.38 1.94 1.24 2.47.27.16.54.22.86.22.27 0 .54-.05.75-.16.43-.27.91-.38 1.4-.32 1.02.16 1.99.81 3.07.59.81-.11 1.4-.91 1.67-1.77.16-.48.11-1.02-.16-1.51ZM219.47 62.25c-.22 1.51.05 3.12-.16 4.68-.11.86 0 1.77-.16 2.64-.22 1.18-.7 2.26-1.08 3.39-.22.75-.32 1.56-.22 2.37.16.97.59 1.83.86 2.74.32 1.02.43 1.99.43 3.01.11 1.08 0 2.15.38 3.12.27.65.86 1.13 1.51 1.34.81.27 1.67.32 2.47.16 1.08-.16 2.04-.81 3.12-.75.86-.05 1.67.27 2.47.54.59.05 1.29.05 1.72-.43a5.86 5.86 0 0 0 1.77-5.43c-.16-.65-.54-1.18-.75-1.83-.27-.7-.22-1.51.11-2.21.59-1.13 1.94-1.72 3.17-1.72 1.02 0 2.04.43 2.8 1.18.91 1.02 1.13 2.64.97 4.03 0 2.1-.32 4.2-.97 6.19-.97 3.39-2.96 4.73-6.56 4.73h-1.34c-1.72 0-3.82.16-5.16 1.24-.65.43-1.13 1.08-1.72 1.56-.7.54-1.51.86-2.37.86-1.56.11-3.12-.38-4.36-1.29-.59-.38-1.02-.91-1.29-1.56-.48-.91-.65-2.04-.91-3.07-.48-1.99-1.45-3.77-2.26-5.59-.7-1.51-1.67-3.01-1.88-4.73-.11-1.67.43-3.17 1.08-4.63.86-1.94 1.77-3.93 2.04-6.08.38-2.31.11-4.68.65-6.89a8.87 8.87 0 0 1 2.42-4.09c1.67-1.56 4.46-3.12 6.83-3.12.59 0 1.18.11 1.72.27 1.18.32 2.26.86 3.44 1.18 2.47.81 5.11.54 7.58 1.4.97.27 1.83.86 2.47 1.61.91 1.13 1.18 2.85.91 4.36-.27 1.34-1.29 3.44-2.21 4.52-.59.7-1.45 1.18-2.37 1.24-1.51 0-3.07-.97-3.66-2.37-.48-.97-.43-2.04-.59-3.07-.16-2.53-3.01-3.6-5.22-3.6-2.58 0-5.11 1.51-5.7 4.09ZM8.63 74.64c-.51-.13-.96-.25-1.34-.35s-.65-.17-.81-.2c-.45-.17-.83-.41-1.15-.73a4.1 4.1 0 0 1-.76-1.03c-.19-.37-.35-.75-.48-1.15s-.22-.77-.29-1.1c-.16-.77-.27-1.45-.33-2.05S3.35 66.75 3.3 66s-.04-1.5.02-2.25.19-1.45.38-2.1.49-1.19.91-1.63c.19-.2.49-.43.91-.68.41-.25 1.17-.44 2.27-.58 1.1-.13 2.68-.18 4.73-.15 2.06.03 4.84.22 8.34.55.64.07 1.17.37 1.6.9s.61 1.17.55 1.9-.36 1.33-.88 1.78c-.53.45-1.14.64-1.84.58-1.12-.1-2.27-.2-3.47-.3s-2.34-.18-3.44-.23-2.1-.07-3.01-.05-1.63.06-2.18.13c-.03.37-.05.8-.05 1.3s.02 1.01.07 1.53.11 1.02.19 1.5.17.89.26 1.23c.16.03.33.07.5.1q.255.045.6.15c2.36.57 4.31 1.06 5.86 1.48q2.325.63 3.75 1.23c1.425.6 1.67.81 2.15 1.23s.81.88 1 1.38c.06.17.16.67.29 1.5s.24 1.84.33 3 .16 2.44.19 3.8c.03 1.37 0 2.67-.12 3.9-.11 1.24-.33 2.34-.65 3.3-.32.97-.77 1.64-1.34 2-.51.3-1.36.52-2.56.65s-2.48.2-3.85.2c-.86 0-1.72-.02-2.58-.08-.86-.05-1.67-.11-2.41-.18-.75-.07-1.41-.14-1.98-.23-.57-.08-1-.16-1.29-.23-.19-.07-.49-.2-.91-.4-.41-.2-.75-.57-1-1.1q-.09-.15-.24-.48c-.1-.22-.18-.59-.24-1.13-.06-.53-.1-1.27-.1-2.2s.05-2.15.14-3.65c.03-.67.31-1.24.84-1.73s1.11-.69 1.74-.63c.7.03 1.27.33 1.7.88s.61 1.16.55 1.83c-.03.67-.05 1.34-.05 2.03v1.78q.855.105 2.1.18c.83.05 1.69.09 2.58.13.89.03 1.74.04 2.53.02.8-.02 1.47-.06 2.01-.13.1-.6.16-1.4.19-2.4s.04-2.03.02-3.08-.06-2.05-.14-3-.17-1.69-.26-2.23c-.45-.23-1.09-.48-1.94-.75-.84-.27-1.74-.53-2.68-.78s-1.85-.48-2.72-.7c-.88-.22-1.55-.37-2.03-.47h-.05ZM27.37 65.43c-.64 0-1.2-.23-1.67-.7-.48-.47-.75-1.03-.81-1.7-.03-.73.17-1.36.62-1.88s1.02-.79 1.72-.83c.26-.03.78-.07 1.58-.1s1.75-.07 2.87-.1c1.11-.03 2.32-.07 3.61-.1s2.54-.06 3.75-.08 2.33 0 3.35.02c1.02.03 1.8.1 2.34.2q1.05.195 1.62 1.08c.38.58.51 1.21.38 1.88-.13.73-.46 1.32-1 1.75q-.81.645-1.86.45c-.51-.13-1.37-.21-2.58-.22-1.21-.02-2.58 0-4.11.02.13 1.34.22 2.85.29 4.55.06 1.7.1 3.48.12 5.33s.02 3.68.02 5.48 0 3.46-.02 4.98-.03 2.82-.05 3.9-.02 1.79-.02 2.13c-.06.67-.33 1.25-.81 1.75s-1.04.75-1.67.75h-.05c-.7-.03-1.29-.3-1.77-.8s-.7-1.12-.67-1.85c.03-2.04.06-4.29.1-6.76.03-2.47.04-4.91.02-7.33s-.06-4.7-.14-6.83-.18-3.89-.31-5.25c-.86.03-1.71.07-2.53.1-.83.03-1.61.07-2.34.1l.05.05ZM54.14 93.36c-1.66 0-2.77-.13-3.35-.4a2.9 2.9 0 0 1-.77-.52c-.22-.21-.43-.64-.62-1.29-.19-.64-.35-1.6-.48-2.86s-.22-3.03-.29-5.3c-.06-2.27-.1-5.12-.1-8.56s.03-7.64.1-12.61c0-.73.24-1.35.72-1.85s1.07-.75 1.77-.75 1.29.26 1.77.78.72 1.11.72 1.78c-.03 2.64-.05 5.31-.05 8.01s0 5.24.02 7.61.06 4.5.12 6.41c.06 1.9.13 3.37.19 4.4.67 0 1.47-.03 2.41-.1s1.89-.15 2.85-.25 1.86-.22 2.7-.35 1.52-.28 2.03-.45q.15-1.245.12-3.93c-.03-2.685-.07-3.84-.17-6.16s-.23-4.79-.41-7.41-.37-5.18-.6-7.68c-.06-.73.12-1.37.55-1.9s.96-.83 1.6-.9c.7-.03 1.31.18 1.84.63s.8 1.04.84 1.78c.38 4.54.68 8.4.88 11.59q.315 4.785.36 7.98c.03 2.14 0 3.83-.07 5.08-.08 1.25-.19 2.21-.34 2.87-.14.66-.31 1.12-.5 1.36-.19.25-.37.44-.53.57-.45.36-1.18.69-2.2.99s-2.16.54-3.42.74-2.57.36-3.94.47c-1.37.12-2.6.17-3.68.17l-.1.05ZM75.25 59.72c.32-.03.83-.09 1.53-.17s1.5-.18 2.39-.3 1.83-.22 2.8-.32 1.9-.2 2.77-.3c.88-.1 1.66-.17 2.34-.22.69-.05 1.19-.07 1.51-.07.64 0 1.48.21 2.51.63 1.04.42 2.04.99 3.01 1.73.97.73 1.82 1.59 2.54 2.55q1.08 1.455 1.08 3.15c0 .03-.05.66-.14 1.88-.1 1.22-.25 2.75-.45 4.58-.21 1.84-.47 3.82-.79 5.96s-.69 4.15-1.12 6.06c-.43 1.9-.92 3.55-1.48 4.93-.56 1.39-1.19 2.21-1.89 2.48-.1.03-.52.12-1.27.28q-1.125.225-2.82.45c-1.13.15-2.36.28-3.68.4s-2.61.18-3.85.18c-1.37 0-2.58-.09-3.63-.28q-1.575-.27-2.25-1.08c-.13-.13-.25-.33-.36-.58q-.165-.375-.33-1.38c-.11-.67-.21-1.63-.29-2.88s-.15-2.96-.22-5.13c-.06-2.17-.1-4.88-.12-8.14-.02-3.25 0-7.22.07-11.89 0-.67.2-1.24.62-1.73.41-.48.93-.76 1.56-.83l-.05.05Zm3.04 28.74c.67.03 1.53.03 2.57 0s2.1-.1 3.19-.2q1.635-.15 3.12-.33c.99-.12 1.78-.23 2.35-.33q.33-.9.72-2.64c.26-1.16.5-2.45.74-3.87s.48-2.91.72-4.45.45-3 .62-4.37c.18-1.37.32-2.59.43-3.64s.17-1.82.17-2.29c-.06-.23-.27-.51-.62-.83a9.5 9.5 0 0 0-1.22-.93c-.46-.3-.93-.57-1.39-.8s-.84-.35-1.13-.35c-.26 0-.74.03-1.46.1s-1.58.15-2.59.25-2.09.22-3.24.35-2.25.25-3.31.35c-.03 2.51-.05 5-.05 7.46s.02 4.76.05 6.91q.045 3.21.12 5.73c.05 1.68.1 2.97.17 3.87h.05ZM106.25 90.91c0 .67-.24 1.26-.71 1.78s-1.06.78-1.75.78-1.28-.25-1.75-.75-.71-1.12-.71-1.85l-.24-28.73c0-.73.24-1.35.71-1.85s1.03-.75 1.66-.75h.05q.945 0 1.68.75c.735.75.73 1.12.73 1.85l.24 28.73.1.05ZM114.28 61.93c.8-.47 1.8-.88 3.01-1.25s2.49-.61 3.85-.73a16 16 0 0 1 4.13.18c1.4.23 2.71.7 3.92 1.4.77.47 1.4 1.2 1.91 2.2s.92 2.14 1.24 3.4c.32 1.27.57 2.63.74 4.08s.29 2.86.33 4.23c.05 1.37.05 2.65 0 3.83s-.1 2.14-.17 2.88c-.19 1.97-.45 3.58-.77 4.83s-.69 2.24-1.1 2.98c-.41.73-.84 1.27-1.27 1.6s-.84.57-1.22.7c-.99.37-2.22.67-3.68.9-1.47.23-2.98.35-4.54.35s-2.96-.15-4.3-.45-2.36-.78-3.06-1.45c-.35-.33-.7-.92-1.05-1.75s-.68-1.82-.98-2.95q-.45-1.695-.81-3.75t-.57-4.2c-.14-1.43-.22-2.86-.24-4.28s.06-2.74.21-3.98c.54-4.37 2.01-7.29 4.4-8.76Zm2.49 25.93c.32.17.88.28 1.67.35.8.07 1.7.09 2.7.08 1-.02 2.03-.08 3.08-.2s1.99-.31 2.82-.58c.35-.47.71-1.63 1.08-3.5s.53-4.37.5-7.51c-.06-3.34-.32-5.86-.77-7.56s-.81-2.69-1.1-2.95c-.73-.43-1.56-.72-2.49-.85-.92-.13-1.86-.16-2.8-.08s-1.82.25-2.65.5-1.53.54-2.1.88c-.45.27-.8.71-1.05 1.33-.26.62-.46 1.19-.62 1.73-.35 1.53-.5 3.26-.45 5.18s.2 3.77.45 5.56c.26 1.79.55 3.38.88 4.78.34 1.4.63 2.35.88 2.85h-.05Zm2.05-13.57c-.06-.73.14-1.36.62-1.88q.72-.78 1.77-.78c1.05 0 1.29.25 1.77.75s.75 1.08.81 1.75l.05 4.5c0 .73-.24 1.36-.72 1.88q-.72.78-1.77.78h-.05c-.64 0-1.2-.25-1.67-.75-.48-.5-.72-1.08-.72-1.75l-.05-4.5h-.05Z" class="cls-1"/></svg>